<?xml version="1.0" encoding="utf-8"?>
<!-- Generator: Adobe Illustrator 16.0.0, SVG Export Plug-In . SVG Version: 6.00 Build 0)  -->
<!DOCTYPE svg PUBLIC "-//W3C//DTD SVG 1.1//EN" "http://www.w3.org/Graphics/SVG/1.1/DTD/svg11.dtd">
<svg version="1.1" id="Layer_1" xmlns="http://www.w3.org/2000/svg" xmlns:xlink="http://www.w3.org/1999/xlink" x="0px" y="0px"
	 width="512px" height="512px" viewBox="0 0 512 512" enable-background="new 0 0 512 512" xml:space="preserve">
<g>
	<path fill="#C76C28" d="M365.357,37.103L329.188,1.001v72.204h36.169V37.103z"/>
	<path fill="#C76C28" d="M148.441,39.093l36.167-36.091v72.193h-36.167V39.093z"/>
	<path fill="#A15825" d="M329.212,37.103H184.565V1.001h144.647V37.103z"/>
	<path fill="#D67928" d="M501,420.663c0,17.453-14.18,31.59-31.644,31.59H44.441c-17.485,0-31.643-14.137-31.643-31.59V104.794
		c0-17.454,14.158-31.589,31.643-31.589h424.915c17.464,0,31.644,14.136,31.644,31.589V420.663z"/>
	<path fill="#BD6B21" d="M501,244.537H12.798v45.126H501V244.537"/>
	<path fill="#DF7A26" d="M12.798,73.205v171.473l244.101,36.102L501,244.678V73.205H12.798z"/>
	<path fill="#C06528" d="M288.543,287.739h-63.287V73.02h63.287V287.739z"/>
	<path fill="#CB6F29" d="M265.924,235.467h-18.072c-12.483,0-22.596,10.102-22.596,22.565v31.393h63.287v-31.393
		C288.543,245.569,278.407,235.467,265.924,235.467z"/>
	<path fill="#E2E0D4" d="M297.568,289.806h-81.36v-22.564h81.36V289.806z"/>
	<path fill="#D0CEC1" d="M225.256,312.38c0,12.461,10.113,22.562,22.596,22.562h18.072c12.483,0,22.619-10.102,22.619-22.562
		v-22.531h-63.287V312.38z"/>
	<path fill="#C4C4BA" d="M288.543,293.927h-63.287v-4.121h63.287V293.927z"/>
</g>
</svg>
