<?xml version="1.0" encoding="utf-8"?>
<!DOCTYPE svg PUBLIC "-//W3C//DTD SVG 1.1//EN" "http://www.w3.org/Graphics/SVG/1.1/DTD/svg11.dtd">
<svg version="1.1" xmlns="http://www.w3.org/2000/svg" xmlns:xlink="http://www.w3.org/1999/xlink" x="0px" y="0px" width="1024px" height="1024px" viewBox="0 0 1024 1024" enable-background="new 0 0 1024 1024" xml:space="preserve">
<metadata> Free Icon Download -- www.onlinewebfonts.com </metadata>

  <path d="M230.336 881.472c-18.624 0-52.544-22.848-52.544-41.344l1.984-626.88c0-18.624 31.36-47.168 49.984-47.168l441.792 1.792-11.712 153.28 130.624 0-0.192 201.792 67.712 66.944L857.984 321.152l0.384 0-0.384-0.32L857.984 317.952l-2.624 0-195.52-205.568L659.84 112 222.656 112c-55.808 0-101.184 45.376-101.184 101.184l0 626.88c0 55.744 45.376 101.12 101.184 101.12l236.16 0-53.376-57.28L230.336 881.472z" />
<path d="M237.056 260.992l154.624 0 0 154.624-154.624 0 0-154.624Z" />
<path d="M237.056 470.4l469.44 0 0 56.256-469.44 0 0-56.256Z" />
<path d="M237.12 575.872l469.376 0 0 56.192-469.376 0 0-56.192Z" />
<path d="M959.872 761.728l-232.512-180.48 0 113.984c0 0-108.032 31.872-237.44 217.152 0 0 151.616-69.568 237.44-70.656l0 100.352L959.872 761.728z" />


</svg>